<svg id="Слой_1" data-name="Слой 1" xmlns="http://www.w3.org/2000/svg" viewBox="0 0 1949.69 1929.11">
    <defs>
        <style>.cls-1{fill:#010101;}</style>
    </defs>
    <path class="cls-1"
          d="M305.6,485.59l-35.92-26.12a78.55,78.55,0,0,1-8.19-6.88,36.11,36.11,0,0,1-6.52-8.42,22.09,22.09,0,0,1-2.77-10.26,20.18,20.18,0,0,1,2.52-11.31,29.54,29.54,0,0,1,6.72-8.26l-9.2-6.69a27.69,27.69,0,0,0-5.61,6.51,34.91,34.91,0,0,0-3.94,8.64,24.06,24.06,0,0,0-1,9.28,25.67,25.67,0,0,0,1.38,7.41,30.92,30.92,0,0,0,1.2,3l-11.38-8.26-6.4,8.79,72,52.35Z"
          transform="translate(-25.15 -35.45)"/>
    <path class="cls-1"
          d="M81.58,764.78l10,2.74,5-18.35,44.74,12.26c4.19,1.15,7.93,2.09,11.22,2.85a25.11,25.11,0,0,0,10.34.15,18.78,18.78,0,0,0,10.72-6.08,32.75,32.75,0,0,0,6.46-11.73,59.14,59.14,0,0,0,2.72-14.6l-10.25-2.8q-1,9.63-3.76,15.58a12.46,12.46,0,0,1-8.85,7.37,14.58,14.58,0,0,1-6.84-.13q-3.65-.85-9.05-2.34L99.8,737.57,107,711.26l-10-2.74-7.21,26.31L66,728.29,62.77,739.9l23.84,6.53Z"
          transform="translate(-25.15 -35.45)"/>
    <polygon class="cls-1"
             points="128.55 828.85 130.39 816.46 47.12 771.41 45.29 783.72 113.82 820.33 37.58 835.56 35.77 847.7 128.55 828.85"/>
    <path class="cls-1"
          d="M355.76,354.86a58.75,58.75,0,0,0,19.83,14.28,39.8,39.8,0,0,0,21.38,3q10.68-1.47,19.77-10t10.9-18.73a36.53,36.53,0,0,0,.2-12.08l8.5,9.05,7.94-7.44-81.15-86.57-8.9,8.34,27.48,29.32a35.64,35.64,0,0,0-10-.08q-10.43,1.41-19.56,10-8.89,8.34-11,18.82a39.42,39.42,0,0,0,1.73,21.43A58.4,58.4,0,0,0,355.76,354.86ZM353,315.13q1.35-7.72,8.33-14.25,6.79-6.36,14.37-7.26a27.13,27.13,0,0,1,15.3,2.87,57.37,57.37,0,0,1,25.25,26.93,27.39,27.39,0,0,1,2,15.6c-.9,5.07-3.66,9.75-8.27,14.08s-9.37,6.62-14.51,7.16a28.32,28.32,0,0,1-15.53-3,51,51,0,0,1-14.74-11.2,51.57,51.57,0,0,1-10.2-15.28A27.49,27.49,0,0,1,353,315.13Z"
          transform="translate(-25.15 -35.45)"/>
    <path class="cls-1"
          d="M292.35,427.4a56.44,56.44,0,0,0,21.75,12.11,39,39,0,0,0,22,0q10.69-3.18,19.36-13.24t10.31-21a38.48,38.48,0,0,0-3-21.78Q358,372.7,347.41,363.57a56.74,56.74,0,0,0-21.69-12.14,38.77,38.77,0,0,0-22,.1q-10.68,3.25-19.41,13.36-8.5,9.86-10.2,20.85a38.9,38.9,0,0,0,3,21.75Q281.74,418.23,292.35,427.4Zm-6.54-39.54q.82-7.83,7.34-15.39,9.63-11.18,21.63-10.45T339,373.29q11.92,10.27,14.64,22.2t-7,23.15q-9.42,10.92-21.59,10.22t-24.34-11.21a49,49,0,0,1-11.81-14.38A26.68,26.68,0,0,1,285.81,387.86Z"
          transform="translate(-25.15 -35.45)"/>
    <path class="cls-1"
          d="M1853.39,670.5a56.39,56.39,0,0,0-21.71,12.21,39.07,39.07,0,0,0-11.47,18.79q-2.88,10.77,1.16,23.42t12.54,19.79a38.45,38.45,0,0,0,20.15,8.8q11.61,1.59,25-2.68a56.69,56.69,0,0,0,21.68-12.16,38.65,38.65,0,0,0,11.4-18.77q2.82-10.8-1.23-23.52-4-12.4-12.44-19.6a38.87,38.87,0,0,0-20.08-8.86Q1866.73,666.24,1853.39,670.5Zm46.39,29.41q4.48,14-2.41,23.89t-22.28,14.77q-15,4.78-26.58.87t-16.09-18.05q-4.38-13.74,2.59-23.75t22.28-14.89a49.16,49.16,0,0,1,18.43-2.55,26.74,26.74,0,0,1,14.78,5.4Q1896.76,690.4,1899.78,699.91Z"
          transform="translate(-25.15 -35.45)"/>
    <path class="cls-1"
          d="M1882.07,762.55a58.61,58.61,0,0,0-22.55,9.41,39.81,39.81,0,0,0-13.81,16.61q-4.34,9.88-1.84,22.07,2.46,12,10.25,19.09a36.36,36.36,0,0,0,10.18,6.5l-12.17,2.49,2.18,10.66,116.26-23.74-2.44-11.95-39.37,8a35.71,35.71,0,0,0,5.3-8.48q4.26-9.6,1.75-21.89-2.44-12-10.24-19.27a39.5,39.5,0,0,0-19.15-9.76A59.22,59.22,0,0,0,1882.07,762.55Zm43.07,33q1.86,9.13-1.35,16.05a27.28,27.28,0,0,1-10.47,11.52,52.3,52.3,0,0,1-17.51,6.68h0a52.38,52.38,0,0,1-18.65.7,27.35,27.35,0,0,1-14.32-6.5c-3.84-3.41-6.39-8.23-7.65-14.41s-.74-11.45,1.5-16.12a28.28,28.28,0,0,1,10.7-11.65,50.74,50.74,0,0,1,17.26-6.68,51.36,51.36,0,0,1,18.36-.68,27.4,27.4,0,0,1,14.37,6.53Q1923.24,786.21,1925.14,795.55Z"
          transform="translate(-25.15 -35.45)"/>
    <rect class="cls-1" x="115.12" y="749.17" width="12.11" height="88.99"
          transform="translate(-705.32 708.81) rotate(-77.79)"/>
    <polygon class="cls-1" points="166.05 672.12 51.15 633.76 47.31 645.25 162.2 683.61 166.05 672.12"/>
    <path class="cls-1"
          d="M1926.76,1022.91l3.6,11.93a33.31,33.31,0,0,0,18.27-13.43q6.75-9.9,7-23.42.21-13.26-5.52-22.67a38,38,0,0,0-16.25-14.52q-10.5-5.12-24.51-5.51a59.92,59.92,0,0,0-24.43,4.59,38,38,0,0,0-16.83,13.86q-6.16,9.21-6.38,22.64-.21,13.26,5.85,22.92t17.85,14.79l3.82-12.13a25.8,25.8,0,0,1-12-9.88,27.63,27.63,0,0,1-3.91-15.53q.23-14.34,10-21.43t25.78-7a51.37,51.37,0,0,1,18.32,3.52,26.61,26.61,0,0,1,12.33,9.76q4.38,6.5,4.23,16.3a27.92,27.92,0,0,1-4.66,15.46A25.31,25.31,0,0,1,1926.76,1022.91Z"
          transform="translate(-25.15 -35.45)"/>
    <path class="cls-1"
          d="M1877.48,881.82a32.14,32.14,0,0,1,10.45-5.49,61.27,61.27,0,0,1,13.41-2.66l45.2-4.24-1.14-12.15-48.73,4.58a63.5,63.5,0,0,0-11.91,2.28,47.24,47.24,0,0,0-11.06,4.76,34.62,34.62,0,0,0-8.93,7.58,30.41,30.41,0,0,0-5.7,10.71,36.29,36.29,0,0,0-1.16,14.14,38.29,38.29,0,0,0,6.56,18.75,32.11,32.11,0,0,0,10.76,9.67l-12.31,1.15,1,10.83,88.6-8.31-1.13-12.06-47.26,4.43a48.12,48.12,0,0,1-13.57-.47,28.79,28.79,0,0,1-10.56-4.1,22.13,22.13,0,0,1-7.13-7.61,27.23,27.23,0,0,1-3.27-11.07,25.44,25.44,0,0,1,1.43-12.09A21.06,21.06,0,0,1,1877.48,881.82Z"
          transform="translate(-25.15 -35.45)"/>
    <path class="cls-1"
          d="M1735.71,411.71q-11.54,2.06-22.89,10.26A56.51,56.51,0,0,0,1696,440.35a39.11,39.11,0,0,0-5,21.43q.63,11.14,8.41,21.88t18.09,14.88a38.49,38.49,0,0,0,21.89,2.07q11.52-2.14,22.87-10.36a56.39,56.39,0,0,0,16.8-18.32,38.53,38.53,0,0,0,5-21.39q-.69-11.13-8.52-22-7.63-10.56-17.94-14.73A38.94,38.94,0,0,0,1735.71,411.71Zm30.38,23.69q8.65,12,5.18,23.47t-16.55,21q-12.75,9.21-25,9.12t-20.93-12.1q-8.46-11.69-5-23.38t16.51-21.1a49.15,49.15,0,0,1,16.71-8.18,26.65,26.65,0,0,1,15.73.51Q1760.24,427.33,1766.09,435.4Z"
          transform="translate(-25.15 -35.45)"/>
    <path class="cls-1"
          d="M133,662.78q7.77,8.79,20.7,14.17a56.69,56.69,0,0,0,24.45,4.75,39.23,39.23,0,0,0,20.91-6.91q9.17-6.33,14.27-18.59T216.58,633a38.51,38.51,0,0,0-9.67-19.74q-7.84-8.7-20.77-14.09-12.7-5.29-24.39-4.77a38.36,38.36,0,0,0-20.84,6.94q-9.15,6.4-14.28,18.72-5,12-3.2,23A38.91,38.91,0,0,0,133,662.78Zm4.35-38.28q5.67-13.62,17.3-16.66T181.2,611q14.53,6.06,20.82,16.54t.59,24.17q-5.55,13.32-17.34,16.43t-26.62-3a49.34,49.34,0,0,1-15.7-10,26.75,26.75,0,0,1-7.77-13.7C134.07,636.27,134.8,630.65,137.36,624.5Z"
          transform="translate(-25.15 -35.45)"/>
    <path class="cls-1"
          d="M1244.72,146.8a36.56,36.56,0,0,0,5.37,10.83q6.2,8.49,17.89,12.24,11.85,3.78,22.14.53a40,40,0,0,0,18-12A58.67,58.67,0,0,0,1319.87,137a58.78,58.78,0,0,0,2.82-24.17A39.41,39.41,0,0,0,1315,92.76q-6.45-8.52-18.06-12.25-11.94-3.81-22-.6a35.66,35.66,0,0,0-9,4.36L1278.24,46l-11.62-3.71-36,113.06,10.36,3.3Zm9.77-30.63a51.85,51.85,0,0,1,8.53-16.7,27,27,0,0,1,12.57-9.18q7.23-2.45,16.1.38,9.11,2.92,13.61,9.28a27.83,27.83,0,0,1,5,15,51.26,51.26,0,0,1-2.6,18.21,50.94,50.94,0,0,1-8.49,16.45,28.28,28.28,0,0,1-12.72,9.38q-7.32,2.61-16.19-.23c-6-1.91-10.52-5-13.51-9.14a27.51,27.51,0,0,1-4.92-14.94A51.6,51.6,0,0,1,1254.49,116.17Z"
          transform="translate(-25.15 -35.45)"/>
    <rect class="cls-1" x="1585.96" y="327.2" width="88.99" height="12.12"
          transform="translate(236.07 1243.67) rotate(-46.19)"/>
    <path class="cls-1"
          d="M1755.61,566.33l40-20.82,15.56,29.91c.53,1,1.18,2.16,1.95,3.4s1.59,2.46,2.47,3.68a33,33,0,0,0,13,10.94,32.47,32.47,0,0,0,15.84,2.85,41.19,41.19,0,0,0,16.54-4.79,42.19,42.19,0,0,0,13.52-10.8,32.26,32.26,0,0,0,6.77-14.57,33,33,0,0,0-1.55-17,35,35,0,0,0-1.56-4.16c-.6-1.33-1.16-2.51-1.7-3.53l-21.15-40.64L1750,555.59Zm95-49.42,15.41,29.6c.46.89,1,1.92,1.49,3.14a25.24,25.24,0,0,1,1.31,3.68,20.41,20.41,0,0,1,.16,11.19,23.28,23.28,0,0,1-5.16,9.28,30.18,30.18,0,0,1-8.57,6.65,29.85,29.85,0,0,1-10.32,3.19,23.41,23.41,0,0,1-10.52-1.12,20.43,20.43,0,0,1-9.08-6.56,29.51,29.51,0,0,1-2.3-3.17c-.71-1.12-1.29-2.12-1.74-3l-15.4-29.6Z"
          transform="translate(-25.15 -35.45)"/>
    <rect class="cls-1" x="1734.19" y="521.87" width="14.09" height="14.09"
          transform="translate(-41.98 963.43) rotate(-31.86)"/>
    <path class="cls-1"
          d="M1647.3,367.3c-3.17,3-5.94,5.65-8.31,8.07a24.91,24.91,0,0,0-5.53,8.74,18.68,18.68,0,0,0-.43,12.31,32.83,32.83,0,0,0,6.61,11.65,59,59,0,0,0,11,9.94l7.76-7.27q-7.68-5.91-11.32-11.35a12.44,12.44,0,0,1-1.64-11.4,14.67,14.67,0,0,1,3.69-5.76q2.65-2.66,6.74-6.49l33.5-31.36,18.64,19.9,7.58-7.1L1697,337.27l18-16.89-8.22-8.78-18,16.89-13-13.88-7.58,7.1,13,13.89Z"
          transform="translate(-25.15 -35.45)"/>
    <rect class="cls-1" x="1649.08" y="388.33" width="121.12" height="12.12"
          transform="matrix(0.77, -0.64, 0.64, 0.77, 121.59, 1156.3)"/>
    <rect class="cls-1" x="1670.86" y="278" width="13.59" height="12.12"
          transform="translate(285.78 1262.17) rotate(-46.17)"/>
    <rect class="cls-1" x="48.47" y="772.45" width="12.11" height="13.6"
          transform="translate(-743.74 632.07) rotate(-77.77)"/>
    <path class="cls-1"
          d="M505.47,231a59.9,59.9,0,0,0,16.83,18.27A37.94,37.94,0,0,0,543,256.16q11.09.34,22.58-6.57t16.34-17.12q5-10.25,3.09-23l-12.32,3.19a25.77,25.77,0,0,1-2,15.42,27.85,27.85,0,0,1-11.09,11.54q-12.28,7.4-23.49,2.84t-19.6-18.15a51.13,51.13,0,0,1-6.73-17.41,26.63,26.63,0,0,1,1.75-15.63q3.19-7.17,11.59-12.21a27.87,27.87,0,0,1,15.58-4.24,25.25,25.25,0,0,1,14.9,5.5l8.21-9.38a33.3,33.3,0,0,0-21.06-8.37q-12-.5-23.55,6.49-11.37,6.84-16.3,16.69a38,38,0,0,0-3.71,21.47Q498.4,218.87,505.47,231Z"
          transform="translate(-25.15 -35.45)"/>
    <path class="cls-1"
          d="M440.82,299.34a47.09,47.09,0,0,0,9.85,6.91,34.13,34.13,0,0,0,11.14,3.63,30.59,30.59,0,0,0,12.11-.77,36.41,36.41,0,0,0,12.64-6.43,38.36,38.36,0,0,0,12.52-15.42A32.14,32.14,0,0,0,501.66,273l7.44,9.89,8.69-6.55-53.56-71.08-9.67,7.3,28.57,37.91a48.15,48.15,0,0,1,6.72,11.79,28.75,28.75,0,0,1,2,11.15,22.16,22.16,0,0,1-2.74,10.06,27.26,27.26,0,0,1-7.71,8.6,25.55,25.55,0,0,1-11.05,5.13,21.06,21.06,0,0,1-10.72-1,32.39,32.39,0,0,1-10.16-6,62.13,62.13,0,0,1-9.3-10L412.89,244l-9.74,7.34,29.46,39.09A67.08,67.08,0,0,0,440.82,299.34Z"
          transform="translate(-25.15 -35.45)"/>
    <path class="cls-1"
          d="M563,157.29l17.08-8.39,20.48,41.62c1.92,3.89,3.68,7.34,5.29,10.31a25.12,25.12,0,0,0,6.75,7.83,18.67,18.67,0,0,0,11.66,4,32.49,32.49,0,0,0,13.06-2.94,59.35,59.35,0,0,0,12.73-7.63l-4.69-9.55q-7.89,5.63-14.16,7.53a12.46,12.46,0,0,1-11.38-1.75,14.63,14.63,0,0,1-4.44-5.21c-1.18-2.21-2.59-5-4.24-8.35l-20.26-41.17,24.47-12.05-4.58-9.32-24.47,12-10.91-22.17-10.8,5.31,10.91,22.18L558.45,148Z"
          transform="translate(-25.15 -35.45)"/>
    <path class="cls-1"
          d="M684.68,165.21a39.13,39.13,0,0,0,19,11.07q10.83,2.66,23.39-1.63t19.52-13A38.42,38.42,0,0,0,755,141.37q1.32-11.64-3.21-24.91A56.58,56.58,0,0,0,739.18,95a38.6,38.6,0,0,0-19-11q-10.86-2.58-23.49,1.72Q684.37,90,677.34,98.61a38.9,38.9,0,0,0-8.44,20.26q-1.42,11.64,3.12,24.88A56.54,56.54,0,0,0,684.68,165.21Zm-3.43-44a26.69,26.69,0,0,1,5.09-14.88q4.67-6.35,14.1-9.58,13.95-4.75,23.95,1.91t15.22,22q5.1,14.88,1.42,26.54c-2.45,7.79-8.35,13.26-17.71,16.48-9.1,3.1-17,2.42-23.79-2.1s-11.89-11.83-15.35-22A49.61,49.61,0,0,1,681.25,121.21Z"
          transform="translate(-25.15 -35.45)"/>
    <path class="cls-1"
          d="M1875.8,624.84a25.18,25.18,0,0,0-7-2.7,31.26,31.26,0,0,0-3.19-.55l13-5.38-4.16-10.05-82.22,34.06,4.64,11.19,41-17A77.87,77.87,0,0,1,1848,631a36.26,36.26,0,0,1,10.58-1.16,22.11,22.11,0,0,1,10.2,3,20.17,20.17,0,0,1,8.33,8,29.28,29.28,0,0,1,3.54,10l10.51-4.34a27.82,27.82,0,0,0-2.63-8.19,35,35,0,0,0-5.31-7.89A24.17,24.17,0,0,0,1875.8,624.84Z"
          transform="translate(-25.15 -35.45)"/>
    <rect class="cls-1" x="644.92" y="109.06" width="12.12" height="88.99"
          transform="translate(-33.34 231.47) rotate(-23.03)"/>
    <rect class="cls-1" x="618.21" y="84.01" width="12.12" height="13.59"
          transform="translate(-10.9 216.1) rotate(-23.04)"/>
    <path class="cls-1"
          d="M233.31,513c.6-1,1.22-2.12,1.88-3.44s1.27-2.65,1.85-4a32.06,32.06,0,0,0-3.26-31.78,41.12,41.12,0,0,0-12.73-11.6,42,42,0,0,0-16.26-5.91,32.26,32.26,0,0,0-16,1.84,32.85,32.85,0,0,0-13.68,10.17,36.75,36.75,0,0,0-2.73,3.5c-.82,1.21-1.53,2.3-2.13,3.29l-23.64,39.24,101.63,61.24,6.25-10.37-38.61-23.26Zm-70.47-3.1,17.22-28.59c.51-.84,1.14-1.81,1.89-2.89a24.37,24.37,0,0,1,2.46-3,20.5,20.5,0,0,1,9.47-6,23.16,23.16,0,0,1,10.61-.44,30.24,30.24,0,0,1,18.25,11,23.39,23.39,0,0,1,4.53,9.56,20.6,20.6,0,0,1-.86,11.18,29.72,29.72,0,0,1-1.5,3.6c-.59,1.2-1.13,2.21-1.64,3.06L206.05,535.9Z"
          transform="translate(-25.15 -35.45)"/>
    <path class="cls-1"
          d="M1458.31,1807.22a24.29,24.29,0,0,0-8.35-4.82,33.26,33.26,0,0,0-9.8-1.64,53.73,53.73,0,0,0-10.78.92l-30.92,5.43a49,49,0,0,1-6.65.69,28,28,0,0,1-6.91-.55,15.93,15.93,0,0,1-6.32-2.87,17.24,17.24,0,0,1-5-6.3,19.17,19.17,0,0,1-1.88-12.6,25,25,0,0,1,6.21-11.9,41.83,41.83,0,0,1,12.77-9.47q11.86-5.94,23.34-4.35a30.37,30.37,0,0,1,19.29,10.57l10.13-7.37a38.8,38.8,0,0,0-15.7-12.51,42.6,42.6,0,0,0-20-3.24,57.42,57.42,0,0,0-21.87,6.29,59.85,59.85,0,0,0-14.31,9.79,43.17,43.17,0,0,0-9.27,12.24,31,31,0,0,0-3.28,13.89,32.6,32.6,0,0,0,3.69,14.66q3.8,7.59,9,11.16a27.25,27.25,0,0,0,10.89,4.55,40.05,40.05,0,0,0,10.91.44c3.48-.36,6.44-.78,8.9-1.27l23.84-4.29a88.2,88.2,0,0,1,10-1.24,23.11,23.11,0,0,1,9.91,1.41q4.61,1.76,7.3,7.13a16.62,16.62,0,0,1,1.48,11,24.67,24.67,0,0,1-5.54,10.93,35.65,35.65,0,0,1-11.51,8.75,37.42,37.42,0,0,1-14.94,3.93,29.49,29.49,0,0,1-14.06-2.78,28.63,28.63,0,0,1-11.09-9.47l-10.32,7.74A41.76,41.76,0,0,0,1403,1865a40.31,40.31,0,0,0,19.18,3.81,56.78,56.78,0,0,0,37.77-18.52,33.9,33.9,0,0,0,7.85-16.55,29,29,0,0,0-3.06-17.91A27.53,27.53,0,0,0,1458.31,1807.22Z"
          transform="translate(-25.15 -35.45)"/>
    <polygon class="cls-1"
             points="1277.51 1756.74 1278.76 1851.4 1290.4 1847 1288.97 1769.32 1339.43 1828.47 1350.91 1824.13 1289.23 1752.3 1277.51 1756.74"/>
    <path class="cls-1"
          d="M1524.32,179.12a24.34,24.34,0,0,1,12.24-.48,35.44,35.44,0,0,1,13.25,5.78,37.4,37.4,0,0,1,10.71,11.15,29.5,29.5,0,0,1,4.42,13.63,28.65,28.65,0,0,1-2.87,14.29l11.78,5.24a41.67,41.67,0,0,0,3.7-19.76,40.29,40.29,0,0,0-6-18.61,56.68,56.68,0,0,0-34.57-24,33.77,33.77,0,0,0-18.27,1.2A29,29,0,0,0,1504.55,179a27.6,27.6,0,0,0-4.38,9.78,24.28,24.28,0,0,0-.13,9.64,32.92,32.92,0,0,0,3.34,9.35,52.92,52.92,0,0,0,6,9l19.79,24.36a50.06,50.06,0,0,1,3.85,5.46,28,28,0,0,1,2.88,6.31,16,16,0,0,1,.57,6.91,17.34,17.34,0,0,1-3.07,7.44,19.24,19.24,0,0,1-10.09,7.78,25.35,25.35,0,0,1-13.42.37,42,42,0,0,1-14.49-6.55q-11-7.46-15.17-18.27a30.3,30.3,0,0,1-.16-22l-11.37-5.26a38.74,38.74,0,0,0-3.28,19.81,42.51,42.51,0,0,0,6.89,19,57.45,57.45,0,0,0,16.14,16,59.69,59.69,0,0,0,15.52,7.74,43.22,43.22,0,0,0,15.2,2.13,31.07,31.07,0,0,0,13.73-3.9,32.61,32.61,0,0,0,11-10.35q4.79-7,5.37-13.29a27.28,27.28,0,0,0-1.33-11.73,39.93,39.93,0,0,0-4.93-9.74q-3-4.29-5.45-7.15l-15.35-18.74a85.42,85.42,0,0,1-6-8.15,23.32,23.32,0,0,1-3.61-9.34q-.72-4.87,2.67-9.85A16.73,16.73,0,0,1,1524.32,179.12Z"
          transform="translate(-25.15 -35.45)"/>
    <polygon class="cls-1"
             points="1610.22 241.31 1543.11 280.45 1570.14 207.55 1560.75 199.64 1528.13 288.52 1537.71 296.59 1619.74 249.33 1610.22 241.31"/>
    <rect class="cls-1" x="1282.38" y="1909.01" width="12.12" height="13.6"
          transform="translate(-527.18 422.75) rotate(-16.93)"/>
    <rect class="cls-1" x="1262.5" y="1806.08" width="12.12" height="88.99"
          transform="translate(-509.3 414.46) rotate(-16.94)"/>
    <path class="cls-1"
          d="M1202.47,144.68a40.19,40.19,0,0,0,18.83-14.52l-10.18-6.53a30.51,30.51,0,0,1-13.57,10.22,31.11,31.11,0,0,1-17.23,1Q1166.6,132,1161,121.4q-5-9.53-2.83-23.75l56.58,11.57,12.11,2.49q3.54-15.27,1.12-27.28a37.44,37.44,0,0,0-10.33-19.81q-7.91-7.82-20.82-10.45-12.6-2.56-23,1.19a38.5,38.5,0,0,0-17.62,13.12q-7.21,9.38-10.14,23.67-2.82,13.8.24,25.1a39,39,0,0,0,11.24,18.88q8.17,7.56,20.92,10.16A43.05,43.05,0,0,0,1202.47,144.68Zm-31-74.83q9.33-7.6,23.38-4.72,13.39,2.75,18.62,12.8,4.29,8.29,2.92,21.29l-56-11.46Q1164.11,75.89,1171.52,69.85Z"
          transform="translate(-25.15 -35.45)"/>
    <path class="cls-1"
          d="M1143.05,1855.37a39.18,39.18,0,0,0-16.22-14.89q-10-4.9-23.2-3.39t-21.84,8.48a38.47,38.47,0,0,0-12.52,18.06q-3.78,11.08-2.19,25,1.58,13.66,7.73,23.62a38.66,38.66,0,0,0,16.22,14.82q10,4.86,23.32,3.33,12.93-1.48,21.64-8.42a38.88,38.88,0,0,0,12.57-18q3.87-11.07,2.27-25A56.34,56.34,0,0,0,1143.05,1855.37Zm-6.06,43.7a26.81,26.81,0,0,1-8.16,13.45q-5.91,5.2-15.82,6.34-14.65,1.68-23-7t-10.18-24.71q-1.8-15.63,4.28-26.25t20.82-12.3q14.32-1.65,22.8,7.13t10.31,24.74A49.17,49.17,0,0,1,1137,1899.07Z"
          transform="translate(-25.15 -35.45)"/>
    <path class="cls-1"
          d="M1260.19,1889.13l-18.48,4.55-11.09-45q-1.56-6.32-3-11.18a25.14,25.14,0,0,0-4.91-9.1,18.75,18.75,0,0,0-10.53-6.4,32.66,32.66,0,0,0-13.39.06,59.24,59.24,0,0,0-14.07,4.74l2.54,10.32a50.46,50.46,0,0,1,15.44-4.31,12.42,12.42,0,0,1,10.74,4.14,14.81,14.81,0,0,1,3.23,6c.68,2.41,1.46,5.42,2.36,9l11,44.57-26.48,6.52,2.48,10.08,26.48-6.52,5.91,24,11.68-2.88-5.91-24,18.48-4.55Z"
          transform="translate(-25.15 -35.45)"/>
    <rect class="cls-1" x="1170.39" y="1829.19" width="12.11" height="121.12"
          transform="translate(-355.44 215.73) rotate(-10.7)"/>
    <path class="cls-1"
          d="M1974.85,1064.7l-24.61-2.3,1.77-19-10.34-1-1.77,19-46.19-4.3q-6.48-.6-11.55-.87a25,25,0,0,0-10.21,1.66,18.72,18.72,0,0,0-9.5,7.85,32.74,32.74,0,0,0-4.32,12.67,58.85,58.85,0,0,0-.14,14.84l10.58,1q-.67-9.66,1-16a12.39,12.39,0,0,1,7.44-8.78,14.72,14.72,0,0,1,6.76-1.07c2.5.15,5.6.4,9.32.74l45.7,4.26-2.53,27.16,10.34,1,2.53-27.16,24.61,2.29Z"
          transform="translate(-25.15 -35.45)"/>
    <path class="cls-1"
          d="M1919.11,1152.82q-9.18-7.29-22.85-10.34a56.35,56.35,0,0,0-24.9-.41A39.05,39.05,0,0,0,1852,1152.5q-7.92,7.86-10.81,20.8t.85,23.42a38.48,38.48,0,0,0,13,17.76q9.24,7.21,22.91,10.27a56.3,56.3,0,0,0,24.85.43,38.53,38.53,0,0,0,19.31-10.45q7.89-7.9,10.8-20.94,2.84-12.69-.85-23.19A38.88,38.88,0,0,0,1919.11,1152.82Zm2.39,38.44q-3.21,14.4-14.13,19.43t-26.68,1.51q-15.36-3.43-23.39-12.65t-4.8-23.7q3.15-14.07,14.21-19.2t26.75-1.62a49.16,49.16,0,0,1,17.2,7.09,26.8,26.8,0,0,1,10,12.12C1922.68,1179.1,1923,1184.76,1921.5,1191.26Z"
          transform="translate(-25.15 -35.45)"/>
    <rect class="cls-1" x="1892.85" y="1074.92" width="12.11" height="88.99"
          transform="matrix(0.15, -0.99, 0.99, 0.15, 487.78, 2798.03)"/>
    <rect class="cls-1" x="1960.29" y="1122.61" width="12.11" height="13.6"
          transform="matrix(0.15, -0.99, 0.99, 0.15, 536.14, 2873.83)"/>
    <path class="cls-1"
          d="M1826.93,1238.24l44.94,15.26a48.13,48.13,0,0,1,12.24,6,28.92,28.92,0,0,1,7.93,8,22.23,22.23,0,0,1,3.4,9.86,27.16,27.16,0,0,1-1.54,11.44,25.27,25.27,0,0,1-6.25,10.44,21,21,0,0,1-9.4,5.25,32.56,32.56,0,0,1-11.74.76,61.46,61.46,0,0,1-13.36-3.06l-43-14.6-3.92,11.55,46.35,15.74a64.41,64.41,0,0,0,11.8,2.8,47.65,47.65,0,0,0,12,.17,34.87,34.87,0,0,0,11.25-3.27,30.45,30.45,0,0,0,9.58-7.45,36.35,36.35,0,0,0,6.83-12.43,38.3,38.3,0,0,0,1.67-19.8,32.13,32.13,0,0,0-5.87-13.21l11.71,4,3.52-10.38-84.27-28.6Z"
          transform="translate(-25.15 -35.45)"/>
    <path class="cls-1"
          d="M1599.76,1606.49l8.32,9.22a36.58,36.58,0,0,0-12-.82q-10.47,1.06-19.59,9.29T1564.82,1643a39.79,39.79,0,0,0,1.25,21.57,63.65,63.65,0,0,0,32,35.57,39.51,39.51,0,0,0,21.2,3.53q10.62-1.26,19.68-9.44,9.3-8.38,11.58-18.65a35.51,35.51,0,0,0,.77-10l26.91,29.84,9.06-8.17-79.46-88.12Zm29.85,33.11a51.67,51.67,0,0,1,10.12,15.78,27,27,0,0,1,1.59,15.48q-1.53,7.47-8.44,13.71-7.1,6.4-14.86,7.07a27.91,27.91,0,0,1-15.44-3.28,55.47,55.47,0,0,1-24.33-27,28.34,28.34,0,0,1-1.7-15.72q1.44-7.62,8.36-13.86t14.72-7.06A27.57,27.57,0,0,1,1615,1628,52.33,52.33,0,0,1,1629.61,1639.6Z"
          transform="translate(-25.15 -35.45)"/>
    <path class="cls-1"
          d="M1705.06,1558.22q-10.49-9.43-21.8-12.48a38.94,38.94,0,0,0-22,.16q-10.65,3.22-19.35,12.92a43,43,0,0,0-10.74,21.53,40.27,40.27,0,0,0,3,23.59l10.79-5.48a30.37,30.37,0,0,1-2-16.87,31.06,31.06,0,0,1,7.87-15.36q9.36-10.43,21.35-9.9,10.76.47,21.93,9.56l-38.59,43-8.26,9.2q11.37,10.77,23,14.75a37.45,37.45,0,0,0,22.32,1.1q10.72-2.88,19.53-12.69,8.6-9.57,10.6-20.44a38.51,38.51,0,0,0-2.43-21.84Q1715.91,1567.94,1705.06,1558.22Zm-1.37,55.79q-9.14,10.17-20.46,9.59-9.32-.48-19.84-8.24l38.2-42.56q8.37,9.2,9.84,18.65Q1713.26,1603.35,1703.69,1614Z"
          transform="translate(-25.15 -35.45)"/>
    <polygon class="cls-1"
             points="1695.88 1425.95 1741.09 1484.85 1670.33 1462.28 1664.26 1470.91 1721.41 1544.35 1728.33 1534.51 1684.01 1477.35 1752.74 1499.8 1759.09 1490.77 1714.72 1433.68 1783.4 1456.19 1790.44 1446.33 1701.94 1417.33 1695.88 1425.95"/>
    <path class="cls-1"
          d="M383,1579.72l-35.26,31.78a48.47,48.47,0,0,1-11.19,7.76,28.75,28.75,0,0,1-10.89,3,22.14,22.14,0,0,1-10.26-1.85,27,27,0,0,1-9.24-6.93,25.43,25.43,0,0,1-6.07-10.56,21.32,21.32,0,0,1,0-10.76,32.47,32.47,0,0,1,5.07-10.62,62.83,62.83,0,0,1,9.19-10.17l33.73-30.4-8.16-9.06-36.36,32.77a63.45,63.45,0,0,0-8.19,8.94,48.07,48.07,0,0,0-6,10.42,34.49,34.49,0,0,0-2.63,11.42,30.55,30.55,0,0,0,1.83,12,36.45,36.45,0,0,0,7.51,12,38.25,38.25,0,0,0,16.46,11.12,32.23,32.23,0,0,0,14.41,1.33l-9.19,8.28,7.34,8.14,66.11-59.58Z"
          transform="translate(-25.15 -35.45)"/>
    <path class="cls-1"
          d="M66.5,980.36a24.29,24.29,0,0,0,8.27-4.94A33,33,0,0,0,81,967.67a53.06,53.06,0,0,0,4.46-9.85l10.36-29.64A52,52,0,0,1,98.45,922a27.62,27.62,0,0,1,3.86-5.76,16.06,16.06,0,0,1,5.59-4.11,17.25,17.25,0,0,1,7.94-1.28,19.25,19.25,0,0,1,11.92,4.51,25.18,25.18,0,0,1,7.36,11.23,41.9,41.9,0,0,1,2,15.77q-.61,13.26-7.6,22.5a30.34,30.34,0,0,1-18.65,11.67L112.39,989A38.71,38.71,0,0,0,131,981.41a42.66,42.66,0,0,0,12.57-15.83,57.26,57.26,0,0,0,5.19-22.16,59.8,59.8,0,0,0-1.55-17.27A43,43,0,0,0,141,912.09a30.91,30.91,0,0,0-10.52-9.64,32.45,32.45,0,0,0-14.58-3.93q-8.48-.39-14.13,2.4a27.27,27.27,0,0,0-9.29,7.28,40.57,40.57,0,0,0-5.71,9.3c-1.39,3.21-2.46,6-3.23,8.39l-7.91,22.9a81.89,81.89,0,0,1-3.82,9.35,23.22,23.22,0,0,1-6.06,8Q62,969.28,56,969a16.58,16.58,0,0,1-10.37-4.11,24.6,24.6,0,0,1-6.83-10.17,35.8,35.8,0,0,1-2-14.32,37.48,37.48,0,0,1,3.87-15,29.54,29.54,0,0,1,9.29-10.91,28.84,28.84,0,0,1,13.68-5.06l-1.72-12.78a41.84,41.84,0,0,0-18.77,7.21,40.26,40.26,0,0,0-12.69,14.88,56.83,56.83,0,0,0-2.28,42,33.86,33.86,0,0,0,10.61,14.93,29,29,0,0,0,17.12,6.07A27.6,27.6,0,0,0,66.5,980.36Z"
          transform="translate(-25.15 -35.45)"/>
    <rect class="cls-1" x="402.82" y="1748.45" width="13.6" height="12.11"
          transform="translate(-1253.08 967.71) rotate(-52.21)"/>
    <path class="cls-1"
          d="M432.61,1687a56.36,56.36,0,0,0,12.55-21.51,39.06,39.06,0,0,0,.38-22q-3-10.76-12.85-19.61t-20.83-10.71a38.57,38.57,0,0,0-21.83,2.61q-10.81,4.53-20.17,15a56.52,56.52,0,0,0-12.55,21.45,38.58,38.58,0,0,0-.33,22q3,10.75,13,19.66,9.69,8.7,20.65,10.61a38.82,38.82,0,0,0,21.8-2.53Q423.28,1697.46,432.61,1687ZM393,1692.79q-7.81-1-15.24-7.63-11-9.84-10-21.82t11.74-24q10.51-11.73,22.48-14.2t23,7.42q10.74,9.63,9.79,21.79t-11.67,24.12a49.21,49.21,0,0,1-14.6,11.53A26.84,26.84,0,0,1,393,1692.79Z"
          transform="translate(-25.15 -35.45)"/>
    <rect class="cls-1" x="406.88" y="1694.56" width="89" height="12.11"
          transform="translate(-1194.43 980.11) rotate(-52.22)"/>
    <rect class="cls-1" x="223.06" y="589.82" width="14.09" height="14.09"
          transform="translate(-431.67 498.89) rotate(-63.31)"/>
    <path class="cls-1"
          d="M514.62,1717a25.1,25.1,0,0,0,3.56-9.71,18.76,18.76,0,0,0-2.18-12.13,32.65,32.65,0,0,0-8.93-10,59,59,0,0,0-12.87-7.4l-6.05,8.74q8.76,4.15,13.46,8.71a12.42,12.42,0,0,1,4,10.79,14.77,14.77,0,0,1-2.38,6.42q-2,3.15-5.22,7.76l-26.11,37.75-22.43-15.51-5.91,8.54L466,1766.46l-14.06,20.33,9.89,6.84,14.06-20.33,15.65,10.83,5.91-8.54-15.65-10.83,26.39-38.15C510.68,1723,512.82,1719.83,514.62,1717Z"
          transform="translate(-25.15 -35.45)"/>
    <path class="cls-1"
          d="M172.22,1201.87l-12.12,2.74a36.61,36.61,0,0,0,6.61-10.11q4.2-9.64,1.49-21.63t-10.76-19.36a39.74,39.74,0,0,0-19.42-9.46,58.62,58.62,0,0,0-24.42.71,59,59,0,0,0-22.28,9.81,39.39,39.39,0,0,0-13.44,16.77q-4.09,9.89-1.41,21.78,2.76,12.23,10.6,19.23a35.33,35.33,0,0,0,8.32,5.55l-39.19,8.86,2.69,11.89,115.73-26.17Zm-15.81-9A27.52,27.52,0,0,1,146,1204.67a52.12,52.12,0,0,1-17.29,7,52,52,0,0,1-18.72,1.11,27.06,27.06,0,0,1-14.28-6.19q-5.77-5-7.83-14.07-2.11-9.32,1.1-16.43a27.9,27.9,0,0,1,10.41-11.86,51,51,0,0,1,17-7,50.87,50.87,0,0,1,18.48-1,28.29,28.29,0,0,1,14.54,6.22q5.94,5,8,14.07Q159.55,1185.81,156.41,1192.86Z"
          transform="translate(-25.15 -35.45)"/>
    <path class="cls-1"
          d="M162.92,1317.34q13.34-4.58,21.53-12.94A39,39,0,0,0,195,1285.16q2.39-10.87-1.83-23.18a42.9,42.9,0,0,0-13.54-19.88,40.14,40.14,0,0,0-22.06-8.88l-.48,12.08a30.34,30.34,0,0,1,15.68,6.54,31,31,0,0,1,9.57,14.36q4.53,13.24-1.78,23.46-5.66,9.16-19.05,14.47L141,1244l-2.1-6.17q-14.94,4.68-24.09,12.84a37.51,37.51,0,0,0-11.86,18.94q-2.72,10.77,1.54,23.25,4.16,12.17,12.66,19.23a38.52,38.52,0,0,0,20.25,8.54Q149.13,1322,162.92,1317.34Zm-48-28.44q-4.42-12.95,1.62-22.54,5-7.9,16.88-13.3l18.49,54.11q-12.12,2.82-21.07-.51Q119.53,1302.47,114.89,1288.9Z"
          transform="translate(-25.15 -35.45)"/>
    <polygon class="cls-1"
             points="141.1 1353.88 195.27 1303.06 190.69 1293.56 98.72 1307.72 103.94 1318.56 175.45 1307.68 122.37 1356.78 127.17 1366.73 198.64 1355.78 145.53 1404.81 150.72 1415.76 219.15 1352.58 214.57 1343.08 141.1 1353.88"/>
    <path class="cls-1"
          d="M904.52,1884.13a78.27,78.27,0,0,1-2,10.51,36.25,36.25,0,0,1-4.13,9.81,22.17,22.17,0,0,1-7.59,7.44,20.28,20.28,0,0,1-11.09,3.35,29.25,29.25,0,0,1-10.49-1.81l-1.32,11.29a27.79,27.79,0,0,0,8.43,1.69,34.66,34.66,0,0,0,9.47-.8,24.28,24.28,0,0,0,8.56-3.68,25.34,25.34,0,0,0,5.79-4.84,29.15,29.15,0,0,0,2-2.52l-1.64,14,10.8,1.27,10.35-88.39-12-1.41Z"
          transform="translate(-25.15 -35.45)"/>
    <polygon class="cls-1"
             points="1073.54 95.55 1084.05 96.42 1118.49 9.97 1106.5 8.98 1079.61 76.13 1064.21 5.49 1053.21 4.58 1026.4 71.73 1011.08 1.09 999.01 0 1018.76 91.01 1029.27 91.88 1057.2 23.09 1073.54 95.55"/>
    <path class="cls-1"
          d="M854.53,1836q-8-7.76-21-10.4t-23.39,1.31a38.51,38.51,0,0,0-17.5,13.32q-7,9.38-9.81,23.11-2.73,13.48,0,24.85a38.66,38.66,0,0,0,10.84,19.09q8.06,7.74,21.14,10.38,12.76,2.6,23.18-1.31a38.85,38.85,0,0,0,17.52-13.22q7.11-9.33,9.89-23.05a56.39,56.39,0,0,0-.08-24.9A39.26,39.26,0,0,0,854.53,1836Zm-1.7,41.52a49.34,49.34,0,0,1-6.75,17.34,26.87,26.87,0,0,1-11.92,10.28q-7.23,3.12-17,1.13-14.46-2.91-19.7-13.75t-2-26.65q3.14-15.42,12.19-23.63t23.6-5.26q14.13,2.87,19.48,13.83T852.83,1877.54Z"
          transform="translate(-25.15 -35.45)"/>
    <path class="cls-1"
          d="M1002.65,1890.64l-33.69-1c-1.15,0-2.46,0-3.92.05s-2.93.19-4.42.36a32,32,0,0,0-26.12,18.4,41.29,41.29,0,0,0-3.89,16.79,42,42,0,0,0,2.82,17.06,32.15,32.15,0,0,0,9.41,13,33.12,33.12,0,0,0,15.57,7,35.6,35.6,0,0,0,4.39.67c1.45.13,2.76.21,3.91.24l45.79,1.4,3.63-118.59-12.11-.37Zm-1.89,61.94-33.36-1c-1,0-2.14-.1-3.46-.22a24.38,24.38,0,0,1-3.85-.66,20.51,20.51,0,0,1-9.85-5.32,23.59,23.59,0,0,1-5.58-9,30.31,30.31,0,0,1-1.61-10.73,29.78,29.78,0,0,1,2.26-10.57,23.35,23.35,0,0,1,6.12-8.63,20.55,20.55,0,0,1,10.16-4.72,29.31,29.31,0,0,1,3.89-.46c1.32-.07,2.48-.09,3.46-.06l33.36,1Z"
          transform="translate(-25.15 -35.45)"/>
    <rect class="cls-1" x="1036.64" y="1844.34" width="14.09" height="14.09"
          transform="translate(-105.59 12.26) rotate(-2.52)"/>
    <path class="cls-1"
          d="M779.46,106.59A48.64,48.64,0,0,1,778.17,93a28.61,28.61,0,0,1,2.72-11,22.09,22.09,0,0,1,6.63-8,27.18,27.18,0,0,1,10.56-4.66,25.53,25.53,0,0,1,12.18-.14,21.23,21.23,0,0,1,9.38,5.27,32.47,32.47,0,0,1,6.78,9.63,62.24,62.24,0,0,1,4.37,13l10,44.29,11.9-2.69L841.91,91a64.57,64.57,0,0,0-3.78-11.51A47.21,47.21,0,0,0,832,69.09a34.45,34.45,0,0,0-8.67-7.89A30.62,30.62,0,0,0,812,56.92a36.26,36.26,0,0,0-14.17.68A38.42,38.42,0,0,0,780,66.5a32.12,32.12,0,0,0-8.21,11.91l-2.72-12-10.69,2.4L778,155.58l11.9-2.69Z"
          transform="translate(-25.15 -35.45)"/>
    <path class="cls-1"
          d="M597.6,1766.4a38,38,0,0,0-4-21.43q-5.08-9.84-16.74-16.52t-22.9-6q-11.38.64-21.57,8.48l8.78,9.21a25.71,25.71,0,0,1,14.44-5.73,27.71,27.71,0,0,1,15.47,4.07q12.43,7.13,13.92,19.13t-6.32,26A51.33,51.33,0,0,1,566.75,1798a26.6,26.6,0,0,1-14.5,6.08q-7.82.71-16.32-4.17a27.93,27.93,0,0,1-11.29-11.55,25.36,25.36,0,0,1-2.45-15.7L510,1770a33.32,33.32,0,0,0,2.93,22.48q5.41,10.7,17.14,17.41,11.5,6.6,22.52,6.11a38,38,0,0,0,20.56-7.21q9.55-6.74,16.66-18.8A59.84,59.84,0,0,0,597.6,1766.4Z"
          transform="translate(-25.15 -35.45)"/>
    <path class="cls-1"
          d="M681.05,1813.16a47.48,47.48,0,0,0,1.24-12A34.47,34.47,0,0,0,680,1789.7a30.42,30.42,0,0,0-6.57-10.2,36.4,36.4,0,0,0-11.78-7.91,38.34,38.34,0,0,0-19.57-3.43,32,32,0,0,0-13.69,4.69l5-11.32-9.95-4.4-36,81.4,11.08,4.9L617.77,1800a48.73,48.73,0,0,1,7-11.62,29,29,0,0,1,8.73-7.22,22.31,22.31,0,0,1,10.12-2.51,27.13,27.13,0,0,1,11.26,2.55,25.53,25.53,0,0,1,9.86,7.15,21.24,21.24,0,0,1,4.4,9.82,32.4,32.4,0,0,1-.3,11.81,62.46,62.46,0,0,1-4.21,13l-18.35,41.53,11.15,4.93,19.78-44.77A65.64,65.64,0,0,0,681.05,1813.16Z"
          transform="translate(-25.15 -35.45)"/>
    <path class="cls-1"
          d="M766.08,1815.88q-6.52-8.6-18.38-12.36-11.7-3.72-21.67-.36a36.8,36.8,0,0,0-10.64,5.72l3.76-11.84-10.37-3.29-35.91,113.09,11.62,3.69,12.16-38.29a35.65,35.65,0,0,0,4.83,8.76q6.33,8.4,18.26,12.2,11.63,3.69,21.82.44a39.35,39.35,0,0,0,17.85-12A63.62,63.62,0,0,0,773.86,1836,39.93,39.93,0,0,0,766.08,1815.88Zm-7.26,40.54a51.62,51.62,0,0,1-8.35,16.37,27.39,27.39,0,0,1-12.7,9.37q-7.39,2.58-16.5-.31-8.88-2.82-13.35-9a27,27,0,0,1-4.95-14.76,51.86,51.86,0,0,1,2.69-18.55h0a52.27,52.27,0,0,1,8.48-16.63,27.47,27.47,0,0,1,12.65-9.34q7.29-2.54,16.32.34,8.88,2.82,13.34,9.17a28.32,28.32,0,0,1,5,15A51,51,0,0,1,758.82,1856.42Z"
          transform="translate(-25.15 -35.45)"/>
</svg>