<svg id="Слой_1" data-name="Слой 1" xmlns="http://www.w3.org/2000/svg" viewBox="0 0 47.08 9.95">
    <defs>
        <style>.cls-1{fill:none;stroke:#1d1d1b;stroke-miterlimit:10;stroke-width:0.25px;}</style>
    </defs>
    <path class="cls-1"
          d="M13,.78V.85h-.41a3.28,3.28,0,0,0-.67,1c-.18.39-.52,1.21-1,2.47L9,9.62H8.87l-2.17-6-2.3,6H4.28c-.29-.86-.8-2.21-1.53-4s-1.2-3-1.54-4a1,1,0,0,0-1-.72H0V.78H3.2V.85H2.71c-.38,0-.57.14-.57.41a1.34,1.34,0,0,0,.07.38L4.76,8.39l1.88-5L6,1.57A1,1,0,0,0,5,.85H4.75V.78H8.08V.85H7.5c-.38,0-.56.14-.56.41a1.64,1.64,0,0,0,.1.47L9.3,8.39,10.87,4.1a11.49,11.49,0,0,0,.83-2.8c0-.3-.19-.45-.56-.45h-.41V.78Z"
          transform="translate(0.13 0.21)"/>
    <path class="cls-1"
          d="M14.86,3.54a2,2,0,0,1,1.65.74A2.87,2.87,0,0,1,17.1,6h-4c0,2.22.63,3.33,1.91,3.33A2.21,2.21,0,0,0,17,8.18l.06,0a2.49,2.49,0,0,1-2.23,1.37A2.55,2.55,0,0,1,14,9.44,2.84,2.84,0,0,1,13.13,9,2.11,2.11,0,0,1,12.49,8a3.74,3.74,0,0,1-.25-1.44,3.31,3.31,0,0,1,.7-2.23A2.4,2.4,0,0,1,14.86,3.54ZM13.13,6h3.13a3.37,3.37,0,0,0-.37-1.68,1.24,1.24,0,0,0-1.13-.67C13.78,3.61,13.23,4.4,13.13,6Z"
          transform="translate(0.13 0.21)"/>
    <path class="cls-1"
          d="M26.54,9.38v.08H24.83v-.7a2.36,2.36,0,0,1-.81.59,2.29,2.29,0,0,1-1,.24A2.84,2.84,0,0,1,21.31,9a2.32,2.32,0,0,1-.71-.94,3.74,3.74,0,0,1-.26-1.44,3,3,0,0,1,.85-2.22,3,3,0,0,1,2.11-.86,4.45,4.45,0,0,1,1.53.29V1c0-.22,0-.36-.16-.42a2.48,2.48,0,0,0-.8-.09V.44A4.16,4.16,0,0,0,25.58,0V8.82a.64.64,0,0,0,.13.44.73.73,0,0,0,.49.12Zm-1.71-.7V4.39a1.43,1.43,0,0,0-1.47-.78,1.86,1.86,0,0,0-1.59.75,3.66,3.66,0,0,0-.54,2.17A4.61,4.61,0,0,0,21.42,8a1.92,1.92,0,0,0,.53.89,2,2,0,0,0,1.4.53A2.1,2.1,0,0,0,24.83,8.68Z"
          transform="translate(0.13 0.21)"/>
    <path class="cls-1"
          d="M32.65,6.58a3,3,0,0,1-.79,2.17,2.85,2.85,0,0,1-4,0A3,3,0,0,1,27,6.58a3.11,3.11,0,0,1,.76-2.25,2.7,2.7,0,0,1,2-.79,2.75,2.75,0,0,1,2.06.77A3.14,3.14,0,0,1,32.65,6.58Zm-.89,0a3.88,3.88,0,0,0-.52-2.24,1.65,1.65,0,0,0-1.4-.73,1.61,1.61,0,0,0-1.4.73,3.92,3.92,0,0,0-.52,2.24,3.84,3.84,0,0,0,.52,2.22,1.63,1.63,0,0,0,1.4.72,1.65,1.65,0,0,0,1.4-.73A3.77,3.77,0,0,0,31.76,6.58Z"
          transform="translate(0.13 0.21)"/>
    <path class="cls-1"
          d="M39.49,9.38v.08H36.82V9.38h.36a.68.68,0,0,0,.47-.12.61.61,0,0,0,.13-.44V5.56c0-.83-.17-1.35-.5-1.56a1.62,1.62,0,0,0-.91-.24,2.82,2.82,0,0,0-1.51.57V8.82a.71.71,0,0,0,.11.46.79.79,0,0,0,.49.1h.36v.08H33.14V9.38h.35A.75.75,0,0,0,34,9.27a.64.64,0,0,0,.12-.45V4.58c0-.23-.05-.37-.15-.43a2.61,2.61,0,0,0-.81-.09V4a4.7,4.7,0,0,0,1.72-.44v.71a3.17,3.17,0,0,1,1.86-.71,1.55,1.55,0,0,1,1.67,1,4.36,4.36,0,0,1,.14,1.19V8.82a.56.56,0,0,0,.13.44.68.68,0,0,0,.47.12Z"
          transform="translate(0.13 0.21)"/>
    <path class="cls-1"
          d="M41.54,1.44a2.55,2.55,0,0,1-.31,1.19,4.09,4.09,0,0,1-.8,1.09l0-.05a2.16,2.16,0,0,0,.73-1.43A.66.66,0,0,0,41,1.87a1.74,1.74,0,0,0-.39-.29.59.59,0,0,1-.28-.49.46.46,0,0,1,.16-.36A.64.64,0,0,1,40.9.59a.54.54,0,0,1,.46.23A1,1,0,0,1,41.54,1.44Z"
          transform="translate(0.13 0.21)"/>
    <path class="cls-1"
          d="M45.29,9.37a1.25,1.25,0,0,0,.79-.29,1.89,1.89,0,0,0,.64-.88l.07,0a2.38,2.38,0,0,1-.67,1,1.55,1.55,0,0,1-1,.39,1.57,1.57,0,0,1-1.21-.45,1.82,1.82,0,0,1-.42-1.29V3.76h-1.2V3.68h.32a1.52,1.52,0,0,0,1.18-.9A4.34,4.34,0,0,0,44.11,1h.09V3.68h.34a8.71,8.71,0,0,0,1.62-.1l0,.18h-2V8C44.2,8.92,44.56,9.37,45.29,9.37Z"
          transform="translate(0.13 0.21)"/>
</svg>