<svg width="22" height="23" viewBox="0 0 22 23" fill="none" xmlns="http://www.w3.org/2000/svg">
<g clip-path="url(#clip0_2_17131)">
<path d="M9.05099 10.8105C9.50753 10.5704 9.85268 10.3031 10.0892 10.0141C10.51 9.49367 10.7176 8.80362 10.7176 7.94823C10.7176 7.11585 10.51 6.40423 10.0947 5.80762C9.40165 4.83579 8.22867 4.33838 6.57029 4.3125H0V18.3336H6.12613C6.81643 18.3336 7.45586 18.2718 8.04716 18.1453C8.63846 18.0173 9.15 17.783 9.58316 17.4408C9.96819 17.1432 10.29 16.7738 10.5457 16.3382C10.95 15.6797 11.1522 14.9336 11.1522 14.1027C11.1522 13.2976 10.9748 12.6119 10.6227 12.0483C10.2666 11.4848 9.74405 11.0722 9.05099 10.8105ZM2.71035 6.74782H5.66959C6.32002 6.74782 6.85631 6.82114 7.2771 6.96634C7.76389 7.17767 8.00728 7.60752 8.00728 8.26307C8.00728 8.85106 7.82164 9.26222 7.45449 9.49367C7.08458 9.72513 6.60467 9.84158 6.01612 9.84158H2.71035V6.74782ZM7.38986 15.6539C7.06258 15.8192 6.60192 15.9011 6.01199 15.9011H2.71035V12.1619H6.05737C6.64042 12.1662 7.09421 12.2467 7.41873 12.3977C7.99628 12.6708 8.28368 13.1711 8.28368 13.9028C8.28368 14.7654 7.98666 15.3462 7.38986 15.6539Z" fill="white"/>
<path d="M19.8849 4.9668H14.0586V6.71206H19.8849V4.9668Z" fill="white"/>
<path d="M21.9103 11.8548C21.7893 11.0425 21.5225 10.328 21.1072 9.71127C20.652 9.01259 20.0745 8.50079 19.3718 8.17733C18.6719 7.85243 17.8839 7.68998 17.0066 7.69142C15.5339 7.69142 14.3375 8.17302 13.4121 9.12903C12.4894 10.0879 12.0273 11.4666 12.0273 13.2636C12.0273 15.18 12.5375 16.5644 13.5633 17.414C14.5851 18.2651 15.7649 18.6892 17.1043 18.6892C18.7255 18.6892 19.9865 18.1846 20.8872 17.1783C21.4634 16.5428 21.7893 15.9175 21.8608 15.3036H19.1765C19.0212 15.6069 18.841 15.8441 18.6348 16.0167C18.2607 16.3329 17.7739 16.4911 17.1771 16.4911C16.6092 16.4911 16.1279 16.3602 15.7264 16.1C15.0636 15.6831 14.7171 14.9528 14.6731 13.9134H21.9983C22.0093 13.0178 21.9818 12.3292 21.9103 11.8548ZM14.7391 12.1236C14.8353 11.4493 15.0691 10.9146 15.4404 10.5192C15.8117 10.1253 16.3369 9.92691 17.0094 9.92547C17.6295 9.92547 18.148 10.1109 18.5701 10.4833C18.9868 10.8585 19.2219 11.4033 19.2701 12.1236H14.7391Z" fill="white"/>
</g>
<defs>
<clipPath id="clip0_2_17131">
<rect width="22" height="23" fill="white"/>
</clipPath>
</defs>
</svg>
