<svg width="22" height="22" viewBox="0 0 22 22" fill="none" xmlns="http://www.w3.org/2000/svg">
<g clip-path="url(#clip0_2_17140)">
<path d="M20.5251 5.47842C19.5414 3.7932 18.2071 2.4589 16.5218 1.47527C14.8363 0.491689 12.9962 0 11.0003 0C9.00462 0 7.16404 0.491689 5.47877 1.47527C3.7934 2.45875 2.4591 3.79305 1.47542 5.47842C0.491689 7.16389 0 9.00447 0 11C0 12.9957 0.49184 14.836 1.47527 16.5215C2.4589 18.2068 3.7932 19.5411 5.47857 20.5248C7.16404 21.5083 9.00447 22 11.0001 22C12.9958 22 14.8364 21.5083 16.5218 20.5248C18.2071 19.5414 19.5413 18.2068 20.5249 16.5215C21.5083 14.8361 22 12.9956 22 11C22 9.00427 21.5083 7.16363 20.5251 5.47842ZM11.0002 1.6042C13.3681 1.6042 15.4355 2.38716 17.2019 3.95303L17.0229 4.20352C16.9513 4.30395 16.7722 4.49709 16.4859 4.7837C16.1995 5.07005 15.8867 5.34236 15.5478 5.60012C15.2086 5.85798 14.7481 6.15156 14.1654 6.48101C13.5829 6.81046 12.9623 7.09947 12.3034 7.3477C11.2054 5.3232 10.031 3.49942 8.78008 1.87626C9.53454 1.69485 10.2745 1.6042 11.0002 1.6042ZM3.63833 5.17024C4.55494 4.01509 5.67196 3.12693 6.98981 2.50636C8.1738 4.08186 9.33864 5.88668 10.4846 7.92046C7.58178 8.68435 4.68863 9.06633 1.80492 9.06618C2.11064 7.62442 2.72172 6.32564 3.63833 5.17024ZM2.23445 14.3877C1.81425 13.3135 1.6042 12.1842 1.6042 11C1.6042 10.8663 1.60912 10.766 1.61855 10.6992C5.07532 10.6992 8.28854 10.2553 11.2581 9.36713C11.5638 9.9591 11.8168 10.4891 12.0173 10.9571C11.9786 10.9761 11.917 10.9975 11.831 11.0214C11.7448 11.0453 11.6829 11.0619 11.6444 11.0716L11.1146 11.2577C10.7515 11.3915 10.2764 11.6207 9.68936 11.9452C9.1022 12.2702 8.47917 12.6566 7.82027 13.1055C7.16138 13.5545 6.48101 14.1489 5.77927 14.8891C5.07743 15.6291 4.48781 16.4238 4.01037 17.2736C3.24647 16.4238 2.65455 15.4616 2.23445 14.3877ZM11.0002 20.396C8.76573 20.396 6.77007 19.6798 5.01306 18.2476L5.22793 18.4052C5.5621 17.6698 6.05378 16.9631 6.70325 16.2853C7.35262 15.6075 7.978 15.0606 8.57956 14.6451C9.18111 14.23 9.83514 13.8385 10.5418 13.4705C11.2484 13.1031 11.7304 12.8689 11.9884 12.769C12.2463 12.6687 12.4516 12.5898 12.6044 12.5324L12.6329 12.518H12.6617C13.5972 14.972 14.2659 17.3497 14.6668 19.651C13.4828 20.1477 12.2607 20.3959 11.0002 20.396ZM18.9068 16.0776C18.2002 17.171 17.3167 18.0759 16.2572 18.7918C15.8653 16.5957 15.2546 14.3563 14.4236 12.0743C16.3238 11.778 18.2764 11.9167 20.2817 12.4894C20.0715 13.788 19.6131 14.9843 18.9068 16.0776ZM20.2528 10.8711C20.1574 10.8522 20.0379 10.8305 19.8947 10.8068C19.7515 10.7831 19.5771 10.7543 19.3717 10.7208C19.1667 10.6874 18.9372 10.6565 18.6843 10.6278C18.4313 10.5991 18.1616 10.573 17.8748 10.5491C17.5885 10.5251 17.2829 10.5062 16.9584 10.4917C16.6334 10.4775 16.3041 10.4703 15.9698 10.4703C15.6359 10.4703 15.2847 10.4799 14.9173 10.4989C14.5498 10.5177 14.1942 10.5515 13.8505 10.5992C13.8216 10.5514 13.7859 10.4726 13.743 10.3627C13.7001 10.253 13.6688 10.1693 13.6503 10.112C13.4686 9.71098 13.2585 9.25737 13.0195 8.75143C13.6784 8.48389 14.3064 8.17606 14.9035 7.82745C15.5001 7.47883 15.9772 7.1687 16.3355 6.89659C16.6937 6.62419 17.0326 6.33532 17.3524 6.02985C17.6724 5.72434 17.8798 5.51198 17.9756 5.39258C18.0713 5.27298 18.1619 5.15609 18.2477 5.04166L18.2621 5.02721C19.6562 6.72688 20.3679 8.68425 20.3962 10.8997L20.2528 10.8711Z" fill="white"/>
</g>
<defs>
<clipPath id="clip0_2_17140">
<rect width="22" height="22" fill="white"/>
</clipPath>
</defs>
</svg>
