<svg width="22" height="22" viewBox="0 0 22 22" fill="none" xmlns="http://www.w3.org/2000/svg">
<path d="M19.7998 19.7996V13.3536C19.7998 10.1856 19.1178 7.76562 15.4218 7.76562C13.6398 7.76562 12.4518 8.73363 11.9678 9.65763H11.9238V8.05162H8.42578V19.7996H12.0778V13.9696C12.0778 12.4296 12.3638 10.9556 14.2558 10.9556C16.1258 10.9556 16.1478 12.6936 16.1478 14.0576V19.7776H19.7998V19.7996Z" fill="white"/>
<path d="M2.48438 8.05078H6.13638V19.7988H2.48438V8.05078Z" fill="white"/>
<path d="M4.31122 2.19922C3.14522 2.19922 2.19922 3.14522 2.19922 4.31122C2.19922 5.47722 3.14522 6.44522 4.31122 6.44522C5.47722 6.44522 6.42322 5.47722 6.42322 4.31122C6.42322 3.14522 5.47722 2.19922 4.31122 2.19922Z" fill="white"/>
</svg>
