<svg id="Слой_1" data-name="Слой 1" xmlns="http://www.w3.org/2000/svg" viewBox="0 0 44.81 44.63"><defs><style>.cls-1{fill:#fff;}</style></defs><path class="cls-1" d="M18.33,37.39v.16a1.4,1.4,0,0,1-.18,2.79c-7-.42-12.74-1.92-15.55-3.81h0C.93,35.41.17,34.08.17,32.82a3.79,3.79,0,0,1,1.08-2.56,10.72,10.72,0,0,1,4-2.48h0a1.4,1.4,0,1,1,1,2.59A9.46,9.46,0,0,0,3.6,31.86h0a3.49,3.49,0,0,0-.43.43.85.85,0,0,0-.2.53.81.81,0,0,0,.14.43,2.28,2.28,0,0,0,.29.34,6.74,6.74,0,0,0,1.91,1.27c2.87,1.38,7.55,2.36,13,2.69Z"/><path d="M18.24,40.52h-.1C11.31,40.1,5.46,38.66,2.5,36.67A4.85,4.85,0,0,1,0,32.82a4,4,0,0,1,1.11-2.67,10.89,10.89,0,0,1,4.05-2.53,1.52,1.52,0,0,1,1.2,0,1.57,1.57,0,0,1,0,2.91A9.16,9.16,0,0,0,3.71,32a3.85,3.85,0,0,0-.4.41.69.69,0,0,0-.16.42.6.6,0,0,0,.1.33,4.15,4.15,0,0,0,.27.32A6.55,6.55,0,0,0,5.38,34.7c2.85,1.37,7.57,2.35,13,2.68a1.57,1.57,0,0,1-.1,3.14ZM5.74,27.85a1.17,1.17,0,0,0-.45.09,10.6,10.6,0,0,0-3.91,2.44,3.58,3.58,0,0,0-1,2.44A4.5,4.5,0,0,0,2.7,36.38c2.87,1.93,8.79,3.38,15.46,3.79a1.22,1.22,0,1,0,.15-2.44h-.17c-5.35-.34-10-1.33-12.91-2.71a6.57,6.57,0,0,1-2-1.3A2.25,2.25,0,0,1,3,33.34a.93.93,0,0,1-.16-.52A1,1,0,0,1,3,32.19a3.26,3.26,0,0,1,.45-.46,9.24,9.24,0,0,1,2.71-1.52,1.23,1.23,0,0,0,.69-1.59A1.27,1.27,0,0,0,6.22,28,1.15,1.15,0,0,0,5.74,27.85Z"/><path class="cls-1" d="M41.21,31.86h0a9.54,9.54,0,0,0-2.65-1.49,1.39,1.39,0,1,1,1-2.59h0a10.86,10.86,0,0,1,4,2.48,3.82,3.82,0,0,1,1.07,2.56c0,1.26-.75,2.59-2.43,3.71h0c-2.81,1.89-8.55,3.39-15.55,3.81a1.4,1.4,0,1,1-.17-2.79h0c5.46-.33,10.14-1.31,13-2.69a6.46,6.46,0,0,0,1.91-1.27,1.81,1.81,0,0,0,.29-.34.81.81,0,0,0,.14-.43.85.85,0,0,0-.2-.53A2.91,2.91,0,0,0,41.21,31.86Z"/><path d="M26.58,40.52a1.57,1.57,0,0,1-.1-3.14c5.38-.33,10.1-1.31,13-2.68a6.41,6.41,0,0,0,1.86-1.23,2,2,0,0,0,.27-.32.62.62,0,0,0,.11-.33.65.65,0,0,0-.17-.42,3.08,3.08,0,0,0-.4-.41,8.92,8.92,0,0,0-2.61-1.45,1.59,1.59,0,0,1-.88-2.05,1.61,1.61,0,0,1,.84-.86,1.58,1.58,0,0,1,1.17,0l0,0a10.93,10.93,0,0,1,4,2.53,3.93,3.93,0,0,1,1.11,2.67,4.85,4.85,0,0,1-2.5,3.85c-3,2-8.81,3.43-15.64,3.85ZM39.07,27.85a1.18,1.18,0,0,0-.48.1,1.23,1.23,0,0,0,0,2.26,9.24,9.24,0,0,1,2.71,1.52h0a2.79,2.79,0,0,1,.45.46,1,1,0,0,1,.24.63,1,1,0,0,1-.17.52,2.25,2.25,0,0,1-.31.37,6.76,6.76,0,0,1-2,1.31c-2.89,1.39-7.66,2.38-13.08,2.71A1.23,1.23,0,0,0,25.35,39a1.24,1.24,0,0,0,1.3,1.15c6.67-.41,12.6-1.86,15.47-3.79a4.51,4.51,0,0,0,2.34-3.56,3.62,3.62,0,0,0-1-2.44A10.62,10.62,0,0,0,39.56,28h0A1.22,1.22,0,0,0,39.07,27.85Z"/><path class="cls-1" d="M36.45,6.43h0a1.36,1.36,0,0,1,1.31.12,1.41,1.41,0,0,1,.63,1.16V24.6a1.41,1.41,0,0,1-.86,1.29h0L23,32a1.44,1.44,0,0,1-1.32-.12A1.4,1.4,0,0,1,21,30.74V13.85a1.39,1.39,0,0,1,.85-1.28h0Zm-.86,3.64V9.82l-.23.1L23.9,14.74l-.1,0V28.64l.23-.1,11.46-4.83.1,0V10.07Z"/><path d="M22.4,32.31a1.5,1.5,0,0,1-.86-.26,1.57,1.57,0,0,1-.71-1.31V13.85a1.55,1.55,0,0,1,1-1.44L36.41,6.25a1.57,1.57,0,0,1,2.15,1.46V24.6a1.57,1.57,0,0,1-1,1.45h0L23,32.19A1.67,1.67,0,0,1,22.4,32.31ZM36.48,6.6,21.93,12.73a1.22,1.22,0,0,0-.75,1.12V30.74a1.23,1.23,0,0,0,1.7,1.13l14.61-6.15a1.23,1.23,0,0,0,.72-1.12V7.71a1.21,1.21,0,0,0-1.69-1.12ZM23.63,28.9V14.67L35.77,9.56V23.79l-.21.09Zm.35-14V28.37l11.44-4.81V10.08Z"/><path class="cls-1" d="M18.54,39.11l-.49-.58-2.59-3.05a1.27,1.27,0,1,1,1.9-1.69l3.94,4.65a1.26,1.26,0,0,1-.16,1.79l-4.58,3.89a1.29,1.29,0,0,1-1.7,0,1.25,1.25,0,0,1-.13-1.77,8.47,8.47,0,0,1,.7-.63l3.05-2.58Z"/><path d="M15.69,44.63a1.47,1.47,0,0,1-1.44-1.36,1.37,1.37,0,0,1,.35-1,4.19,4.19,0,0,1,.54-.49l.17-.15,2.19-1.85.79-.67-3-3.5a1.44,1.44,0,0,1,1.06-2.41,1.36,1.36,0,0,1,1.11.5l3.94,4.65a1.46,1.46,0,0,1-.19,2l-4.58,3.88A1.53,1.53,0,0,1,15.69,44.63Zm2.85-5.52.1.14-.91.77-2.19,1.86-.18.15a4.4,4.4,0,0,0-.5.46,1,1,0,0,0-.26.76A1.07,1.07,0,0,0,15,44a1.1,1.1,0,0,0,1.47,0L21,40.1a1.09,1.09,0,0,0,.14-1.54q-2-2.34-3.94-4.66a1,1,0,0,0-.84-.37,1.09,1.09,0,0,0-.84.4,1.11,1.11,0,0,0,0,1.43l3.19,3.76-.13.12Z"/><path class="cls-1" d="M8.17,6.48h0l14.59,6.14h0a1.41,1.41,0,0,1,.85,1.29V30.8a1.39,1.39,0,0,1-1.94,1.28L7.09,25.94h0a1.4,1.4,0,0,1-.86-1.29V7.77A1.4,1.4,0,0,1,8.17,6.48ZM9.26,10,9,9.87V23.73l.1,0,11.46,4.82.23.1V14.84l-.11-.05Z"/><path d="M22.22,32.37a1.5,1.5,0,0,1-.62-.13L7,26.11a1.57,1.57,0,0,1-1-1.46V7.77A1.57,1.57,0,0,1,8.24,6.32l14.58,6.14a1.57,1.57,0,0,1,1,1.45V30.8a1.6,1.6,0,0,1-.71,1.31A1.58,1.58,0,0,1,22.22,32.37ZM7.63,6.55a1.2,1.2,0,0,0-.68.2,1.23,1.23,0,0,0-.54,1V24.65a1.21,1.21,0,0,0,.75,1.13l14.58,6.14a1.22,1.22,0,0,0,1.7-1.12V13.91a1.24,1.24,0,0,0-.75-1.13L8.1,6.64A1.27,1.27,0,0,0,7.63,6.55ZM21,29,8.85,23.84V9.61L21,14.72ZM9.2,23.61l11.44,4.82V15L9.2,10.14Z"/><path class="cls-1" d="M21.75.29h0a1.39,1.39,0,0,1,1.08,0h0l14.7,6.14a1.41,1.41,0,0,1,.86,1.29A1.39,1.39,0,0,1,37.53,9h0l-14.7,6.14h0a1.35,1.35,0,0,1-1.08,0h0L7.28,9h0a1.39,1.39,0,0,1,0-2.57h0Zm.61,2.83-.07,0-.06,0L11.76,7.56l-.36.15.36.16,10.47,4.44.06,0,.07,0L33,7.87l.36-.16L33,7.56Z"/><path d="M22.29,15.43a1.42,1.42,0,0,1-.61-.13L7.21,9.16a1.57,1.57,0,0,1,0-2.89L21.68.13l.07.16L21.68.13a1.57,1.57,0,0,1,1.22,0L37.59,6.26a1.57,1.57,0,0,1,0,2.9l0,0L22.9,15.3A1.49,1.49,0,0,1,22.29,15.43Zm0-15.08a1.18,1.18,0,0,0-.48.1h0L7.34,6.59a1.23,1.23,0,0,0,0,2.25L21.81,15a1.21,1.21,0,0,0,1,0L37.49,8.83a1.22,1.22,0,0,0,.72-1.12,1.21,1.21,0,0,0-.75-1.12L22.76.45A1.1,1.1,0,0,0,22.29.35Zm0,12.18-.13-.06L11,7.71,22.29,2.9l.14.05L33.82,7.71ZM11.85,7.71,22.3,12.15,32.91,7.71,22.29,3.28Z"/></svg>