<svg width="21" height="21" viewBox="0 0 21 21" fill="none" xmlns="http://www.w3.org/2000/svg">
<path d="M17.8796 3.04958C15.9069 1.08419 13.2825 0.00112152 10.4894 0C7.70261 0 5.07408 1.08211 3.08835 3.04701C1.09909 5.01528 0.00256348 7.63099 0 10.4027V10.406V10.4079C0.000320435 12.0855 0.441078 13.7779 1.27773 15.3227L0.0286789 21L5.77135 19.6937C7.2258 20.4267 8.84864 20.8132 10.4854 20.8138H10.4896C13.2759 20.8138 15.9044 19.7316 17.8905 17.7665C19.8815 15.7966 20.9785 13.1843 20.9798 10.4108C20.9806 7.65678 19.8798 5.04252 17.8796 3.04958ZM10.4894 19.1748H10.4857C9.01607 19.1742 7.55985 18.8052 6.27475 18.1074L6.00318 17.96L2.18456 18.8286L3.01401 15.059L2.85411 14.7832C2.05911 13.4123 1.63902 11.8989 1.63902 10.4061C1.64207 5.57444 5.61193 1.63902 10.4891 1.63902C12.8453 1.63998 15.0591 2.55338 16.7228 4.21067C18.4117 5.89359 19.3414 8.0953 19.3406 10.4103C19.3387 15.2431 15.368 19.1748 10.4894 19.1748Z" fill="white"/>
<path d="M7.63474 5.81836H7.17492C7.01486 5.81836 6.75499 5.87828 6.53517 6.11749C6.31519 6.35685 5.69531 6.93539 5.69531 8.11203C5.69531 9.28867 6.5552 10.4256 6.67504 10.5853C6.79504 10.7449 8.33489 13.2366 10.7737 14.1952C12.8006 14.9918 13.2132 14.8333 13.653 14.7934C14.0929 14.7537 15.0727 14.215 15.2726 13.6567C15.4726 13.0983 15.4726 12.6196 15.4127 12.5196C15.3526 12.42 15.1925 12.3602 14.9527 12.2407C14.7127 12.121 13.5367 11.5327 13.3167 11.4527C13.0967 11.3731 12.9368 11.3332 12.7768 11.5727C12.6167 11.8118 12.1455 12.3648 12.0055 12.5244C11.8656 12.6842 11.7256 12.7042 11.4856 12.5845C11.2456 12.4645 10.4807 12.2075 9.56408 11.393C8.85063 10.759 8.35556 9.95052 8.21553 9.71116C8.07566 9.47196 8.20063 9.3425 8.32095 9.22314C8.42878 9.11611 8.57442 8.96967 8.69442 8.83012C8.81426 8.69041 8.84839 8.59076 8.9285 8.43118C9.00845 8.27161 8.96839 8.1319 8.90847 8.01238C8.84839 7.89269 8.38792 6.71013 8.17452 6.23717H8.17468C7.99491 5.83887 7.80569 5.82541 7.63474 5.81836Z" fill="white"/>
</svg>
